# xmcd
#
# Track frame offsets: 
#        150
#        15111
#        28975
#        51593
#        67036
#        79656
#        86369
#        98050
#        108968
#        129295
#        140519
#        152507
#        172526
#        187682
#        201171
#
# Disc length: 2916 seconds
#
# Revision: 0
# Processed by: cddbd v1.5.1PL0 Copyright (c) Steve Scherf et al.
# Submitted via: ExactAudioCopy v0.95a5
#
DISCID=af0b620f
DTITLE=Feetwarmers - Cold Feet
DYEAR=1900
DGENRE=Country
TTITLE0=Station
TTITLE1=Too Far Gone
TTITLE2=Country Law
TTITLE3=Freedom Holiday Cruise
TTITLE4=Serviceman
TTITLE5=Piss Off
TTITLE6=Cows
TTITLE7=I Got a Woman
TTITLE8=Motorhome Love
TTITLE9=Boom Boom Tsjak Tsjak
TTITLE10=Big Time Woman
TTITLE11=Brutus Bastard
TTITLE12=Bus Stop Girl
TTITLE13=The Battle
TTITLE14=Bye Bye Baby
EXTD=
EXTT0=
EXTT1=
EXTT2=
EXTT3=
EXTT4=
EXTT5=
EXTT6=
EXTT7=
EXTT8=
EXTT9=
EXTT10=
EXTT11=
EXTT12=
EXTT13=
EXTT14=
PLAYORDER=
